<svg width="50" height="50" viewBox="0 0 50 50" fill="none" xmlns="http://www.w3.org/2000/svg">
<rect x="49.9999" y="6.10352e-05" width="50" height="50" rx="25" transform="rotate(90 49.9999 6.10352e-05)" fill="black"/>
<path d="M36.3535 25.3542C36.5488 25.159 36.5488 24.8424 36.3536 24.6471L33.1717 21.465C32.9764 21.2698 32.6598 21.2698 32.4646 21.465C32.2693 21.6603 32.2693 21.9769 32.4645 22.1721L35.2929 25.0006L32.4644 27.829C32.2691 28.0242 32.2691 28.3408 32.4644 28.5361C32.6596 28.7313 32.9762 28.7314 33.1715 28.5361L36.3535 25.3542ZM14 25.5L36 25.5007L36 24.5007L14 24.5L14 25.5Z" fill="white"/>
</svg>
