<svg width="50" height="50" viewBox="0 0 50 50" fill="none" xmlns="http://www.w3.org/2000/svg">
<rect x="49.9999" y="6.10352e-05" width="50" height="50" rx="25" transform="rotate(90 49.9999 6.10352e-05)" fill="black"/>
<path d="M13.6464 24.6466C13.4512 24.8419 13.4512 25.1584 13.6464 25.3537L16.8285 28.5357C17.0237 28.7309 17.3403 28.7309 17.5356 28.5357C17.7308 28.3404 17.7308 28.0238 17.5356 27.8286L14.7071 25.0001L17.5355 22.1717C17.7308 21.9764 17.7308 21.6599 17.5355 21.4646C17.3402 21.2693 17.0237 21.2693 16.8284 21.4646L13.6464 24.6466ZM36 24.5L14 24.5001L14 25.5001L36 25.5L36 24.5Z" fill="white"/>
</svg>
