<svg width="16" height="102" viewBox="0 0 16 102" fill="none" xmlns="http://www.w3.org/2000/svg">
<path d="M14 101H2L8 95L14 101Z" stroke="black" stroke-width="0.5" stroke-linejoin="round"/>
<path d="M8.17677 0.82325C8.07914 0.725616 7.92085 0.725616 7.82322 0.82325L6.23223 2.41424C6.1346 2.51187 6.1346 2.67016 6.23223 2.76779C6.32986 2.86542 6.48815 2.86542 6.58578 2.76779L8 1.35358L9.41421 2.76779C9.51184 2.86542 9.67013 2.86542 9.76776 2.76779C9.86539 2.67016 9.86539 2.51187 9.76776 2.41424L8.17677 0.82325ZM8.25 95L8.25 1.00002L7.75 1.00002L7.75 95L8.25 95Z" fill="black"/>
<path d="M14.1768 20.8232C14.0791 20.7256 13.9209 20.7256 13.8232 20.8232L12.2322 22.4142C12.1346 22.5119 12.1346 22.6702 12.2322 22.7678C12.3299 22.8654 12.4882 22.8654 12.5858 22.7678L14 21.3536L15.4142 22.7678C15.5118 22.8654 15.6701 22.8654 15.7678 22.7678C15.8654 22.6702 15.8654 22.5119 15.7678 22.4142L14.1768 20.8232ZM14.25 101L14.25 21H13.75L13.75 101H14.25Z" fill="black"/>
<path d="M2.17677 28.8232C2.07914 28.7256 1.92085 28.7256 1.82322 28.8232L0.23223 30.4142C0.134599 30.5119 0.134599 30.6702 0.23223 30.7678C0.329861 30.8654 0.488152 30.8654 0.585783 30.7678L2 29.3536L3.41421 30.7678C3.51184 30.8654 3.67013 30.8654 3.76776 30.7678C3.86539 30.6702 3.86539 30.5119 3.76776 30.4142L2.17677 28.8232ZM2.25 101L2.25 29L1.75 29L1.75 101L2.25 101Z" fill="black"/>
</svg>
